<svg width="15" height="15" viewBox="0 0 15 15" fill="none" xmlns="http://www.w3.org/2000/svg">
<path d="M10 4.54518V12.4875L6.49167 11.3791L5.83333 11.1709L5.175 11.3791L1.66667 12.4875V4.54518H10ZM13.3333 0.871033H4.99167C4.075 0.871033 3.33333 1.42215 3.33333 2.09575H11.6667C12.5833 2.09575 13.3333 2.64687 13.3333 3.32046V11.2811L15 11.8935V2.09575C15 1.42215 14.25 0.871033 13.3333 0.871033ZM10 3.32046H1.66667C0.75 3.32046 0 3.87159 0 4.54518V14.3429L5.83333 12.5058L11.6667 14.3429V4.54518C11.6667 3.87159 10.9167 3.32046 10 3.32046Z" fill="black" fill-opacity="0.47"/>
</svg>
